G04 MADE WITH FRITZING*
G04 WWW.FRITZING.ORG*
G04 DOUBLE SIDED*
G04 HOLES PLATED*
G04 CONTOUR ON CENTER OF CONTOUR VECTOR*
%ASAXBY*%
%FSLAX23Y23*%
%MOIN*%
%OFA0B0*%
%SFA1.0B1.0*%
%ADD10C,0.075000*%
%ADD11C,0.092000*%
%ADD12C,0.063018*%
%ADD13C,0.064000*%
%ADD14C,0.080000*%
%ADD15C,0.078000*%
%ADD16C,0.118740*%
%ADD17R,0.092000X0.092000*%
%ADD18R,0.062984X0.062983*%
%ADD19R,0.062511X0.187493*%
%ADD20R,0.080000X0.079986*%
%ADD21R,0.118740X0.118740*%
%ADD22C,0.024000*%
%LNCOPPER0*%
G90*
G70*
G54D10*
X1777Y266D03*
X1521Y266D03*
X1777Y443D03*
X1521Y443D03*
G54D11*
X2477Y243D03*
X2777Y243D03*
X2477Y443D03*
X2777Y443D03*
X2177Y643D03*
X2477Y643D03*
G54D12*
X1977Y2243D03*
X2877Y2243D03*
X1977Y2143D03*
X1977Y2043D03*
X1977Y1943D03*
X1977Y1843D03*
X1977Y1743D03*
X1977Y1643D03*
X1977Y1543D03*
X2877Y2143D03*
X2877Y2043D03*
X2877Y1943D03*
X2877Y1843D03*
X2877Y1743D03*
X2877Y1643D03*
X2877Y1543D03*
X1977Y2243D03*
X2877Y2243D03*
X1977Y2143D03*
X1977Y2043D03*
X1977Y1943D03*
X1977Y1843D03*
X1977Y1743D03*
X1977Y1643D03*
X1977Y1543D03*
X2877Y2143D03*
X2877Y2043D03*
X2877Y1943D03*
X2877Y1843D03*
X2877Y1743D03*
X2877Y1643D03*
X2877Y1543D03*
G54D13*
X3277Y1543D03*
X3277Y1643D03*
X3277Y1743D03*
X3277Y1843D03*
X3277Y1943D03*
X3277Y2043D03*
G54D14*
X3277Y543D03*
X3477Y543D03*
G54D15*
X3277Y2243D03*
X3277Y2343D03*
X1777Y2243D03*
X1477Y1843D03*
X1477Y1943D03*
X1477Y2043D03*
X1477Y2143D03*
X1477Y2243D03*
X1477Y2343D03*
X1477Y2443D03*
X777Y1443D03*
X677Y1443D03*
X577Y1443D03*
X477Y1443D03*
G54D16*
X4577Y528D03*
X4577Y343D03*
X4577Y713D03*
G54D17*
X2477Y243D03*
X2477Y443D03*
X2177Y643D03*
G54D18*
X1977Y2243D03*
X2877Y2243D03*
X1977Y2243D03*
X2877Y2243D03*
G54D19*
X2344Y2152D03*
G54D20*
X3277Y543D03*
G54D21*
X4577Y713D03*
G54D22*
X1961Y1740D02*
X795Y1448D01*
D02*
X4537Y529D02*
X3497Y543D01*
D02*
X1458Y2443D02*
X1175Y2445D01*
D02*
X1175Y2445D02*
X586Y1460D01*
D02*
X1775Y2445D02*
X1496Y2443D01*
D02*
X1776Y2262D02*
X1775Y2445D01*
G04 End of Copper0*
M02*