; NON-PLATED HOLES START AT T1
; THROUGH (PLATED) HOLES START AT T100
M48
INCH
T1C0.125984
T100C0.052000
T101C0.038000
T102C0.040000
T103C0.031522
T104C0.035000
T105C0.078740
%
T1
X045765Y025433
X002765Y025433
X002765Y001433
X045765Y001433
T100
X027765Y004433
X021765Y006433
X027765Y002433
X024765Y006433
X024765Y002433
X024765Y004433
T101
X014765Y023433
X017765Y022433
X014765Y024433
X032765Y023433
X005765Y014433
X007765Y014433
X014765Y021433
X032765Y022433
X014765Y020433
X014765Y019433
X006765Y014433
X014765Y018433
X014765Y022433
X004765Y014433
T102
X032765Y015433
X032765Y019433
X032765Y017433
X032765Y016433
X034765Y005433
X032765Y018433
X032765Y005433
X032765Y020433
T103
X028765Y015433
X019765Y018433
X028765Y018433
X028765Y017433
X028765Y022433
X028765Y020433
X019765Y019433
X028765Y021433
X019765Y022433
X019765Y016433
X028765Y016433
X019765Y021433
X019765Y017433
X028765Y019433
X019765Y015433
X019765Y020433
T104
X015206Y004433
X017765Y002661
X015206Y002661
X017765Y004433
T105
X045765Y005283
X045765Y003433
X045765Y007134
T00
M30
